<svg width="120" height="120" viewBox="0 0 120 120" fill="none" xmlns="http://www.w3.org/2000/svg">
<rect width="120" height="120" rx="5" fill="#131316"/>
<g clip-path="url(#clip0_264_6462)">
<path d="M59.3052 21.0008C59.4647 21.0014 59.4647 21.0014 59.6276 21.002C70.3084 21.0488 80.2157 25.3121 87.7319 32.8654C88.771 33.9315 89.7109 35.0602 90.6053 36.2485C90.6696 36.3328 90.7343 36.4171 90.8006 36.504C94.6083 41.4937 94.6083 41.4937 94.6083 42.9536C71.596 42.9536 48.5835 42.9536 24.8737 42.9536C25.0429 42.4467 25.1758 42.0611 25.4225 41.6083C25.4791 41.5043 25.5357 41.4004 25.594 41.2933C25.6849 41.1298 25.6849 41.1298 25.7776 40.963C25.841 40.8489 25.9043 40.7347 25.9696 40.6171C27.3216 38.2113 28.9871 35.9936 30.814 33.9275C30.8732 33.8603 30.9324 33.793 30.9933 33.7238C32.5068 32.0151 34.1656 30.4433 35.9972 29.0781C36.163 28.9545 36.3281 28.8299 36.4926 28.7045C41.2108 25.1142 46.7198 22.7475 52.5335 21.6455C52.7005 21.6137 52.8676 21.5819 53.0397 21.5492C55.1283 21.1689 57.1823 20.9864 59.3052 21.0008Z" fill="#EEEEEE"/>
<path d="M21.295 55.8677C31.7663 55.8677 42.2377 55.8677 53.0263 55.8677C53.0263 70.1014 53.0263 84.3351 53.0263 99C44.1606 98.0179 35.3651 92.4237 29.8229 85.5639C29.5214 85.1827 29.2284 84.7956 28.9364 84.4076C28.8696 84.3195 28.8029 84.2317 28.7341 84.141C27.7119 82.7907 26.8078 81.4033 25.9897 79.9213C25.8391 79.6492 25.6852 79.3791 25.5306 79.1091C23.6163 75.7076 22.3494 71.8866 21.6269 68.0633C21.5965 67.9024 21.566 67.7416 21.5347 67.5755C21.1531 65.423 20.9918 63.2799 21.0022 61.0953C21.0036 60.7495 21.0022 60.4037 21.0006 60.0579C21.0007 59.8298 21.0011 59.6013 21.0016 59.3731C21.0011 59.274 21.0005 59.1749 21 59.0725C21.0089 57.9815 21.1646 56.9733 21.295 55.8677Z" fill="#EEEEEE"/>
<path d="M66.5858 55.8677C77.055 55.8677 87.5246 55.8677 98.311 55.8677C98.61 58.4014 98.61 58.4014 98.609 59.3504C98.6097 59.4589 98.6103 59.5675 98.6113 59.6793C98.6126 60.0231 98.612 60.3667 98.6107 60.7105C98.6103 60.8295 98.61 60.9481 98.6097 61.0706C98.6035 62.9783 98.4972 64.8315 98.1817 66.7155C98.1615 66.8491 98.1414 66.9823 98.1206 67.1201C96.6587 76.8003 91.1402 85.8993 83.2902 91.7685C83.2021 91.8348 83.114 91.9014 83.023 91.97C81.6691 92.9895 80.2777 93.8907 78.7918 94.7065C78.5188 94.8566 78.2481 95.01 77.9774 95.1644C74.7976 96.9438 70.3022 99 66.5858 99C66.5858 84.7663 66.5858 70.5327 66.5858 55.8677Z" fill="#EEEEEE"/>
</g>
<defs>
<clipPath id="clip0_264_6462">
<rect width="78" height="78" fill="white" transform="translate(21 21)"/>
</clipPath>
</defs>
</svg>
