<svg width="78" height="78" viewBox="0 0 78 78" fill="none" xmlns="http://www.w3.org/2000/svg">
<g clip-path="url(#clip0_264_6483)">
<path d="M38.3052 0.000784204C38.4647 0.00138415 38.4647 0.00138415 38.6276 0.00199621C49.3084 0.0488303 59.2157 4.31213 66.7319 11.8654C67.771 12.9315 68.7109 14.0602 69.6053 15.2485C69.6696 15.3328 69.7343 15.4171 69.8006 15.504C73.6083 20.4937 73.6083 20.4937 73.6083 21.9536C50.596 21.9536 27.5835 21.9536 3.87366 21.9536C4.04292 21.4467 4.17581 21.0611 4.42252 20.6083C4.4791 20.5043 4.53568 20.4004 4.59399 20.2933C4.68489 20.1298 4.68489 20.1298 4.77764 19.963C4.84099 19.8489 4.90433 19.7347 4.96962 19.6171C6.32162 17.2113 7.98708 14.9936 9.81404 12.9275C9.87319 12.8603 9.93237 12.793 9.99331 12.7238C11.5068 11.0151 13.1656 9.4433 14.9972 8.07813C15.163 7.95447 15.3281 7.82987 15.4926 7.70455C20.2108 4.11418 25.7198 1.74752 31.5335 0.645508C31.7005 0.61373 31.8676 0.581948 32.0397 0.549208C34.1283 0.168917 36.1823 -0.013562 38.3052 0.000784204Z" fill="#131316"/>
<path d="M0.295023 34.8677C10.7663 34.8677 21.2377 34.8677 32.0263 34.8677C32.0263 49.1014 32.0263 63.3351 32.0263 78C23.1606 77.0179 14.3651 71.4237 8.82294 64.5639C8.52143 64.1827 8.22838 63.7956 7.93643 63.4076C7.86965 63.3195 7.80286 63.2317 7.73406 63.141C6.71187 61.7907 5.80781 60.4033 4.98969 58.9213C4.83905 58.6492 4.6852 58.3791 4.5306 58.1091C2.61633 54.7076 1.34935 50.8866 0.626905 47.0633C0.596469 46.9024 0.56603 46.7416 0.53467 46.5755C0.153067 44.423 -0.00822848 42.2799 0.00222131 40.0953C0.0036177 39.7495 0.00221954 39.4037 0.000577063 39.0579C0.000748195 38.8298 0.00107999 38.6013 0.00158891 38.3731C0.00106457 38.274 0.000540228 38.1749 0 38.0725C0.00890103 36.9815 0.16459 35.9733 0.295023 34.8677Z" fill="#131316"/>
<path d="M45.5858 34.8677C56.055 34.8677 66.5246 34.8677 77.311 34.8677C77.61 37.4014 77.61 37.4014 77.609 38.3504C77.6097 38.4589 77.6103 38.5675 77.6113 38.6793C77.6126 39.0231 77.612 39.3667 77.6107 39.7105C77.6103 39.8295 77.61 39.9481 77.6097 40.0706C77.6035 41.9783 77.4972 43.8315 77.1817 45.7155C77.1615 45.8491 77.1414 45.9823 77.1206 46.1201C75.6587 55.8003 70.1402 64.8993 62.2902 70.7685C62.2021 70.8348 62.114 70.9014 62.023 70.97C60.6691 71.9895 59.2777 72.8907 57.7918 73.7065C57.5188 73.8566 57.2481 74.01 56.9774 74.1644C53.7976 75.9438 49.3022 78 45.5858 78C45.5858 63.7663 45.5858 49.5327 45.5858 34.8677Z" fill="#131316"/>
</g>
<defs>
<clipPath id="clip0_264_6483">
<rect width="78" height="78" fill="white"/>
</clipPath>
</defs>
</svg>
