<svg width="128" height="128" viewBox="0 0 128 128" fill="none" xmlns="http://www.w3.org/2000/svg">
<path d="M55.6679 88.0174C41.746 86.3397 31.9375 76.3788 31.9375 63.4821C31.9375 58.2396 33.8359 52.5776 37 48.8029C35.6289 45.3428 35.8398 38.0032 37.4219 34.9625C41.6406 34.4382 47.3359 36.6401 50.7109 39.6808C54.7188 38.4226 58.9375 37.7935 64.1054 37.7935C69.2734 37.7935 73.4922 38.4226 77.2891 39.576C80.5585 36.6401 86.3594 34.4382 90.5781 34.9625C92.0547 37.7935 92.2656 45.1331 90.8945 48.698C94.2695 52.6824 96.0625 58.0298 96.0625 63.4821C96.0625 76.3788 86.2539 86.13 72.121 87.9125C75.707 90.2192 78.1328 95.2521 78.1328 101.019V111.924C78.1328 115.069 80.7695 116.851 83.9335 115.593C103.023 108.358 118 89.3804 118 65.8937C118 36.2207 93.7422 12 63.8945 12C34.0469 12 10 36.2206 10 65.8937C10 89.1707 24.871 108.463 44.9101 115.698C47.7578 116.746 50.5 114.86 50.5 112.029V103.64C49.0234 104.269 47.125 104.689 45.4375 104.689C38.4766 104.689 34.3632 100.914 31.4101 93.8891C30.25 91.058 28.9844 89.3804 26.5585 89.0659C25.2929 88.961 24.871 88.4368 24.871 87.8077C24.871 86.5494 26.9804 85.6057 29.0898 85.6057C32.1484 85.6057 34.7851 87.4931 37.5273 91.3726C39.6367 94.4133 41.8516 95.7764 44.4882 95.7764C47.125 95.7764 48.8125 94.8327 51.2382 92.4211C53.0313 90.6386 54.4023 89.0659 55.6679 88.0174Z" fill="black"/>
</svg>
