<svg width="128" height="128" viewBox="0 0 128 128" fill="none" xmlns="http://www.w3.org/2000/svg">
<mask id="mask0_272_6566" style="mask-type:luminance" maskUnits="userSpaceOnUse" x="13" y="12" width="102" height="104">
<path d="M113.846 54.3528H64.9965V74.3451H93.0658C92.6145 77.1745 91.6014 79.9579 90.1176 82.4959C88.4177 85.4037 86.3161 87.6175 84.162 89.3034C77.7096 94.3534 70.1869 95.3861 64.9624 95.3861C51.7648 95.3861 40.4884 86.674 36.123 74.8358C35.9469 74.4062 35.8299 73.9625 35.6874 73.5238C34.7228 70.5109 34.1957 67.3199 34.1957 64.0033C34.1957 60.5516 34.7665 57.2475 35.8071 54.127C39.9121 41.8195 51.4427 32.6269 64.9719 32.6269C67.6932 32.6269 70.3137 32.9578 72.7988 33.6177C78.4781 35.1257 82.4955 38.0959 84.9571 40.4452L99.8103 25.5883C90.7752 17.1271 78.997 12 64.9472 12C53.7154 11.9998 43.3457 15.5741 34.848 21.6147C27.9567 26.5136 22.3049 33.0725 18.4905 40.6899C14.9427 47.7529 13 55.5799 13 63.9955C13 72.4115 14.9456 80.3199 18.4935 87.3175V87.3646C22.241 94.7935 27.721 101.19 34.3814 106.066C40.1999 110.326 50.6332 116 64.9472 116C73.1789 116 80.4744 114.484 86.9084 111.643C91.5498 109.594 95.6621 106.921 99.3853 103.486C104.305 98.9471 108.158 93.3328 110.788 86.8734C113.417 80.414 114.824 73.1095 114.824 65.1902C114.824 61.5021 114.461 57.7566 113.846 54.3524V54.3528Z" fill="white"/>
</mask>
<g mask="url(#mask0_272_6566)">
<g filter="url(#filter0_f_272_6566)">
<path d="M12.2505 64.3486C12.3045 72.6318 14.6154 81.1779 18.1132 88.077V88.1244C20.6406 93.1347 24.0948 97.0924 28.0291 101.014L51.7912 92.1582C47.2956 89.8257 46.6096 88.3965 43.3869 85.7886C40.0937 82.3968 37.6392 78.503 36.1106 73.9374H36.049L36.1106 73.8899C35.105 70.875 35.0058 67.6746 34.9687 64.3486H12.2505Z" fill="url(#paint0_radial_272_6566)"/>
</g>
<g filter="url(#filter1_f_272_6566)">
<path d="M64.9963 11.6216C62.6477 20.049 63.5457 28.2408 64.9963 33.0071C67.7085 33.0091 70.3212 33.3393 72.7985 33.9972C78.4779 35.5052 82.4947 38.4755 84.9564 40.8248L100.19 25.5883C91.1655 17.1372 80.3052 11.6349 64.9963 11.6216Z" fill="url(#paint1_radial_272_6566)"/>
</g>
<g filter="url(#filter2_f_272_6566)">
<path d="M64.946 11.5552C53.4258 11.5549 42.79 15.221 34.0742 21.4168C30.838 23.7173 27.8682 26.3747 25.2238 29.3299C24.5311 35.9679 30.4097 44.1268 42.0513 44.0593C47.6997 37.3484 56.0536 33.0066 65.3515 33.0066C65.36 33.0066 65.3682 33.0073 65.3767 33.0073L64.997 11.5567C64.9798 11.5567 64.9632 11.5552 64.946 11.5552Z" fill="url(#paint2_radial_272_6566)"/>
</g>
<g filter="url(#filter3_f_272_6566)">
<path d="M102.969 66.7507L92.6864 73.9656C92.2352 76.795 91.2213 79.5784 89.7376 82.1164C88.0376 85.0242 85.9362 87.2381 83.7821 88.9239C77.343 93.9636 69.8402 95.0012 64.6172 95.0055C59.2186 104.397 58.2721 109.101 64.9969 116.68C73.318 116.674 80.6951 115.14 87.2021 112.267C91.9058 110.19 96.0731 107.481 99.8462 104C104.832 99.4001 108.737 93.7102 111.402 87.1642C114.067 80.6181 115.492 73.2159 115.492 65.1904L102.969 66.7507Z" fill="url(#paint3_radial_272_6566)"/>
</g>
<g filter="url(#filter4_f_272_6566)">
<path d="M64.2373 53.5935V75.105H113.709C114.144 72.159 115.583 68.3467 115.583 65.1907C115.583 61.5025 115.221 56.9977 114.606 53.5935H64.2373Z" fill="#3086FF"/>
</g>
<g filter="url(#filter5_f_272_6566)">
<path d="M25.4596 28.5703C22.4067 31.982 19.7986 35.8007 17.7306 39.9305C14.1828 46.9934 12.2402 55.58 12.2402 63.9956C12.2402 64.1142 12.2498 64.2302 12.2506 64.3486C13.8218 67.4255 33.9541 66.8363 34.9688 64.3486C34.9676 64.2325 34.9548 64.1193 34.9548 64.003C34.9548 60.5513 35.5257 58.0072 36.5664 54.8866C37.8502 51.0374 39.8604 47.4928 42.4308 44.4389C43.0135 43.679 44.5678 42.0456 45.0212 41.0658C45.1939 40.6927 44.7076 40.4832 44.6804 40.3518C44.65 40.2049 43.9979 40.3231 43.8519 40.2136C43.388 39.8661 42.4696 39.6847 41.9119 39.5234C40.7198 39.1786 38.7442 38.4184 37.6469 37.6303C34.1783 35.1391 28.7653 32.1635 25.4596 28.5703Z" fill="url(#paint4_radial_272_6566)"/>
</g>
<g filter="url(#filter6_f_272_6566)">
<path d="M37.7214 40.3664C45.7646 45.3428 48.0777 37.8546 53.4254 35.5113L44.123 15.8083C40.701 17.2773 37.468 19.1024 34.4682 21.2348C29.9883 24.4195 26.0322 28.3056 22.7642 32.7281L37.7214 40.3664Z" fill="url(#paint5_radial_272_6566)"/>
</g>
<g filter="url(#filter7_f_272_6566)">
<path d="M40.9949 90.636C30.1979 94.6172 28.5075 94.76 27.5137 101.594C29.4129 103.487 31.4535 105.238 33.6219 106.826C39.4405 111.086 50.6329 116.76 64.947 116.76C64.9638 116.76 64.9799 116.758 64.9967 116.758V94.6257C64.9858 94.6258 64.9734 94.6265 64.9625 94.6265C59.6024 94.6265 55.3192 93.1885 50.9275 90.688C49.8447 90.0714 47.8802 91.727 46.8815 90.9869C45.5042 89.9661 42.1895 91.8664 40.9949 90.636Z" fill="url(#paint6_radial_272_6566)"/>
</g>
<g opacity="0.5" filter="url(#filter8_f_272_6566)">
<path d="M58.6733 93.9287V116.375C60.6761 116.614 62.7604 116.76 64.9469 116.76C67.1388 116.76 69.2594 116.645 71.3199 116.433V94.08C69.0108 94.4832 66.836 94.6266 64.9625 94.6266C62.8048 94.6266 60.7065 94.37 58.6733 93.9287Z" fill="url(#paint7_linear_272_6566)"/>
</g>
</g>
<defs>
<filter id="filter0_f_272_6566" x="11.7804" y="63.8786" width="40.4807" height="37.6052" filterUnits="userSpaceOnUse" color-interpolation-filters="sRGB">
<feFlood flood-opacity="0" result="BackgroundImageFix"/>
<feBlend mode="normal" in="SourceGraphic" in2="BackgroundImageFix" result="shape"/>
<feGaussianBlur stdDeviation="0.23504" result="effect1_foregroundBlur_272_6566"/>
</filter>
<filter id="filter1_f_272_6566" x="63.0822" y="11.1515" width="37.5779" height="30.1433" filterUnits="userSpaceOnUse" color-interpolation-filters="sRGB">
<feFlood flood-opacity="0" result="BackgroundImageFix"/>
<feBlend mode="normal" in="SourceGraphic" in2="BackgroundImageFix" result="shape"/>
<feGaussianBlur stdDeviation="0.23504" result="effect1_foregroundBlur_272_6566"/>
</filter>
<filter id="filter2_f_272_6566" x="24.6989" y="11.0851" width="41.1477" height="33.4446" filterUnits="userSpaceOnUse" color-interpolation-filters="sRGB">
<feFlood flood-opacity="0" result="BackgroundImageFix"/>
<feBlend mode="normal" in="SourceGraphic" in2="BackgroundImageFix" result="shape"/>
<feGaussianBlur stdDeviation="0.23504" result="effect1_foregroundBlur_272_6566"/>
</filter>
<filter id="filter3_f_272_6566" x="59.7882" y="64.7204" width="56.174" height="52.4299" filterUnits="userSpaceOnUse" color-interpolation-filters="sRGB">
<feFlood flood-opacity="0" result="BackgroundImageFix"/>
<feBlend mode="normal" in="SourceGraphic" in2="BackgroundImageFix" result="shape"/>
<feGaussianBlur stdDeviation="0.23504" result="effect1_foregroundBlur_272_6566"/>
</filter>
<filter id="filter4_f_272_6566" x="63.7672" y="53.1234" width="52.2859" height="22.4516" filterUnits="userSpaceOnUse" color-interpolation-filters="sRGB">
<feFlood flood-opacity="0" result="BackgroundImageFix"/>
<feBlend mode="normal" in="SourceGraphic" in2="BackgroundImageFix" result="shape"/>
<feGaussianBlur stdDeviation="0.23504" result="effect1_foregroundBlur_272_6566"/>
</filter>
<filter id="filter5_f_272_6566" x="11.7702" y="28.1002" width="33.758" height="38.811" filterUnits="userSpaceOnUse" color-interpolation-filters="sRGB">
<feFlood flood-opacity="0" result="BackgroundImageFix"/>
<feBlend mode="normal" in="SourceGraphic" in2="BackgroundImageFix" result="shape"/>
<feGaussianBlur stdDeviation="0.23504" result="effect1_foregroundBlur_272_6566"/>
</filter>
<filter id="filter6_f_272_6566" x="19.4593" y="12.5035" width="37.2708" height="32.8404" filterUnits="userSpaceOnUse" color-interpolation-filters="sRGB">
<feFlood flood-opacity="0" result="BackgroundImageFix"/>
<feBlend mode="normal" in="SourceGraphic" in2="BackgroundImageFix" result="shape"/>
<feGaussianBlur stdDeviation="1.65243" result="effect1_foregroundBlur_272_6566"/>
</filter>
<filter id="filter7_f_272_6566" x="27.0436" y="90.0773" width="38.4231" height="27.1523" filterUnits="userSpaceOnUse" color-interpolation-filters="sRGB">
<feFlood flood-opacity="0" result="BackgroundImageFix"/>
<feBlend mode="normal" in="SourceGraphic" in2="BackgroundImageFix" result="shape"/>
<feGaussianBlur stdDeviation="0.23504" result="effect1_foregroundBlur_272_6566"/>
</filter>
<filter id="filter8_f_272_6566" x="58.2033" y="93.4586" width="13.5866" height="23.7712" filterUnits="userSpaceOnUse" color-interpolation-filters="sRGB">
<feFlood flood-opacity="0" result="BackgroundImageFix"/>
<feBlend mode="normal" in="SourceGraphic" in2="BackgroundImageFix" result="shape"/>
<feGaussianBlur stdDeviation="0.23504" result="effect1_foregroundBlur_272_6566"/>
</filter>
<radialGradient id="paint0_radial_272_6566" cx="0" cy="0" r="1" gradientUnits="userSpaceOnUse" gradientTransform="translate(51.3155 100.233) rotate(-92.3395) scale(51.8348 76.1391)">
<stop offset="0.141612" stop-color="#1ABD4D"/>
<stop offset="0.247515" stop-color="#6EC30D"/>
<stop offset="0.311547" stop-color="#8AC502"/>
<stop offset="0.366013" stop-color="#A2C600"/>
<stop offset="0.445673" stop-color="#C8C903"/>
<stop offset="0.540305" stop-color="#EBCB03"/>
<stop offset="0.615636" stop-color="#F7CD07"/>
<stop offset="0.699345" stop-color="#FDCD04"/>
<stop offset="0.771242" stop-color="#FDCE05"/>
<stop offset="0.860566" stop-color="#FFCE0A"/>
</radialGradient>
<radialGradient id="paint1_radial_272_6566" cx="0" cy="0" r="1" gradientTransform="matrix(35.934 -8.82079e-05 -5.05067e-05 46.4068 98.7647 39.7224)" gradientUnits="userSpaceOnUse">
<stop offset="0.408458" stop-color="#FB4E5A"/>
<stop offset="1" stop-color="#FF4540"/>
</radialGradient>
<radialGradient id="paint2_radial_272_6566" cx="0" cy="0" r="1" gradientUnits="userSpaceOnUse" gradientTransform="translate(79.1416 4.83763) rotate(151.02) scale(57.5524 78.0982)">
<stop offset="0.231273" stop-color="#FF4541"/>
<stop offset="0.311547" stop-color="#FF4540"/>
<stop offset="0.457516" stop-color="#FF4640"/>
<stop offset="0.540305" stop-color="#FF473F"/>
<stop offset="0.699346" stop-color="#FF5138"/>
<stop offset="0.771242" stop-color="#FF5B33"/>
<stop offset="0.860566" stop-color="#FF6C29"/>
<stop offset="1" stop-color="#FF8C18"/>
</radialGradient>
<radialGradient id="paint3_radial_272_6566" cx="0" cy="0" r="1" gradientUnits="userSpaceOnUse" gradientTransform="translate(65.7454 109.949) rotate(-127.454) scale(150.14 55.4204)">
<stop offset="0.131546" stop-color="#0CBA65"/>
<stop offset="0.209784" stop-color="#0BB86D"/>
<stop offset="0.297297" stop-color="#09B479"/>
<stop offset="0.396257" stop-color="#08AD93"/>
<stop offset="0.477124" stop-color="#0AA6A9"/>
<stop offset="0.568425" stop-color="#0D9CC6"/>
<stop offset="0.667385" stop-color="#1893DD"/>
<stop offset="0.768727" stop-color="#258BF1"/>
<stop offset="0.858506" stop-color="#3086FF"/>
</radialGradient>
<radialGradient id="paint4_radial_272_6566" cx="0" cy="0" r="1" gradientUnits="userSpaceOnUse" gradientTransform="translate(60.5349 21.3775) rotate(96.6178) scale(56.0663 77.5214)">
<stop offset="0.366013" stop-color="#FF4E3A"/>
<stop offset="0.457516" stop-color="#FF8A1B"/>
<stop offset="0.540305" stop-color="#FFA312"/>
<stop offset="0.615636" stop-color="#FFB60C"/>
<stop offset="0.771242" stop-color="#FFCD0A"/>
<stop offset="0.860566" stop-color="#FECF0A"/>
<stop offset="0.915033" stop-color="#FECF08"/>
<stop offset="1" stop-color="#FDCD01"/>
</radialGradient>
<radialGradient id="paint5_radial_272_6566" cx="0" cy="0" r="1" gradientUnits="userSpaceOnUse" gradientTransform="translate(51.4485 20.7997) rotate(132.119) scale(27.8477 78.5455)">
<stop offset="0.315904" stop-color="#FF4C3C"/>
<stop offset="0.603818" stop-color="#FF692C"/>
<stop offset="0.726837" stop-color="#FF7825"/>
<stop offset="0.884534" stop-color="#FF8D1B"/>
<stop offset="1" stop-color="#FF9F13"/>
</radialGradient>
<radialGradient id="paint6_radial_272_6566" cx="0" cy="0" r="1" gradientTransform="matrix(-50.3461 -27.8846 37.8393 -68.3192 79.1413 123.161)" gradientUnits="userSpaceOnUse">
<stop offset="0.231273" stop-color="#0FBC5F"/>
<stop offset="0.311547" stop-color="#0FBC5F"/>
<stop offset="0.366013" stop-color="#0FBC5E"/>
<stop offset="0.457516" stop-color="#0FBC5D"/>
<stop offset="0.540305" stop-color="#12BC58"/>
<stop offset="0.699346" stop-color="#28BF3C"/>
<stop offset="0.771242" stop-color="#38C02B"/>
<stop offset="0.860566" stop-color="#52C218"/>
<stop offset="0.915033" stop-color="#67C30F"/>
<stop offset="1" stop-color="#86C504"/>
</radialGradient>
<linearGradient id="paint7_linear_272_6566" x1="58.6733" y1="105.344" x2="71.3199" y2="105.344" gradientUnits="userSpaceOnUse">
<stop stop-color="#0FBC5C"/>
<stop offset="1" stop-color="#0CBA65"/>
</linearGradient>
</defs>
</svg>
